# Blender v2.79 (sub 0) OBJ File: 'block_grow.blend'
# www.blender.org
mtllib block_grow.mtl
o g_g
v 100.000000 25.000006 100.000000
v 0.000000 25.000006 100.000000
v 100.000000 25.000000 -0.000000
v 0.000000 25.000000 0.000000
v 100.000000 75.000008 100.000000
v 0.000000 75.000008 100.000000
v 100.000000 75.000000 -0.000000
v 0.000000 75.000000 0.000000
v 25.000023 0.000000 100.000000
v 25.000006 99.999985 100.000000
v 25.000011 0.000000 -0.000000
v 25.000000 99.999985 0.000000
v 75.000015 0.000000 100.000000
v 75.000008 99.999985 100.000000
v 75.000015 0.000000 -0.000000
v 75.000000 99.999985 0.000000
vt 0.000000 1.000000
vt 1.000000 0.000000
vt 1.000000 1.000000
vt 0.000000 1.000000
vt 1.000000 0.000000
vt 1.000000 1.000000
vt 0.000000 1.000000
vt 1.000000 0.000000
vt 1.000000 1.000000
vt 0.000000 1.000000
vt 1.000000 0.000000
vt 1.000000 1.000000
vt 0.000000 0.000000
vt 0.000000 0.000000
vt 0.000000 0.000000
vt 0.000000 0.000000
vn 0.0000 1.0000 -0.0000
vn 1.0000 0.0000 -0.0000
usemtl mtl_grow
s off
f 5/1/1 8/2/1 6/3/1
f 1/4/1 4/5/1 2/6/1
f 13/7/2 16/8/2 14/9/2
f 9/10/2 12/11/2 10/12/2
f 5/1/1 7/13/1 8/2/1
f 1/4/1 3/14/1 4/5/1
f 13/7/2 15/15/2 16/8/2
f 9/10/2 11/16/2 12/11/2
o c_c
v 0.000000 0.000000 0.000000
v 0.000000 0.000000 100.000000
v 0.000000 100.000000 0.000000
v 0.000000 100.000000 100.000000
v 100.000000 0.000000 0.000000
v 100.000000 0.000000 100.000000
v 100.000000 100.000000 0.000000
v 100.000000 100.000000 100.000000
v 0.000000 100.000000 0.000000
v 0.000000 100.000000 0.000000
v 0.000000 0.000000 0.000000
v 0.000000 0.000000 0.000000
v 0.000000 0.000000 100.000000
v 0.000000 0.000000 100.000000
v 0.000000 100.000000 100.000000
v 0.000000 100.000000 100.000000
v 100.000000 100.000000 0.000000
v 100.000000 100.000000 0.000000
v 100.000000 100.000000 100.000000
v 100.000000 100.000000 100.000000
v 100.000000 0.000000 0.000000
v 100.000000 0.000000 0.000000
v 100.000000 0.000000 100.000000
v 100.000000 0.000000 100.000000
vn -1.0000 0.0000 0.0000
vn 0.0000 1.0000 0.0000
vn 1.0000 0.0000 0.0000
vn 0.0000 -1.0000 0.0000
vn 0.0000 0.0000 -1.0000
vn 0.0000 0.0000 1.0000
usemtl shadow_caster
s off
f 29//3 25//3 27//3
f 32//4 33//4 26//4
f 36//5 37//5 34//5
f 40//6 28//6 38//6
f 23//7 17//7 19//7
f 20//8 22//8 24//8
f 29//3 31//3 25//3
f 32//4 35//4 33//4
f 36//5 39//5 37//5
f 40//6 30//6 28//6
f 23//7 21//7 17//7
f 20//8 18//8 22//8
o co_culling
v 0.000000 0.000000 0.000000
v 0.000000 0.000000 0.000000
v 0.000000 0.000000 0.000000
v 0.000000 0.000000 0.000000
v 0.000000 0.000000 0.000000
v 0.000000 0.000000 0.000000
v 0.000000 0.000000 0.000000
v 0.000000 0.000000 0.000000
vn 0.0000 0.0000 1.0000
usemtl None
s off
f 41//9 44//9 43//9
f 43//9 48//9 47//9
f 47//9 46//9 45//9
f 45//9 42//9 41//9
f 43//9 45//9 41//9
f 48//9 42//9 46//9
f 41//9 42//9 44//9
f 43//9 44//9 48//9
f 47//9 48//9 46//9
f 45//9 46//9 42//9
f 43//9 47//9 45//9
f 48//9 44//9 42//9
